<svg xmlns="http://www.w3.org/2000/svg" width="1200" height="1200" viewBox="0 0 1200 1200" role="img" aria-labelledby="title desc">
  <title id="title">Natural Oak Swatch</title>
  <desc id="desc">Placeholder natural oak wood grain swatch for the Shopify swatch library.</desc>
  <defs>
    <linearGradient id="oakBase" x1="0" y1="0" x2="1" y2="0">
      <stop offset="0" stop-color="#9f7244"/>
      <stop offset="0.24" stop-color="#c49863"/>
      <stop offset="0.51" stop-color="#b68a5a"/>
      <stop offset="0.75" stop-color="#d2aa76"/>
      <stop offset="1" stop-color="#8f633a"/>
    </linearGradient>
    <filter id="woodNoise" x="-20%" y="-20%" width="140%" height="140%">
      <feTurbulence type="fractalNoise" baseFrequency="0.018 0.18" numOctaves="5" seed="33" result="noise"/>
      <feDisplacementMap in="SourceGraphic" in2="noise" scale="34" xChannelSelector="R" yChannelSelector="G"/>
    </filter>
  </defs>
  <rect width="1200" height="1200" fill="url(#oakBase)"/>
  <g filter="url(#woodNoise)" opacity="0.78">
    <path d="M-60 146 C180 96 314 230 520 172 C735 112 914 176 1260 112" fill="none" stroke="#744b2b" stroke-width="18" stroke-linecap="round" opacity="0.48"/>
    <path d="M-40 272 C142 346 344 212 548 294 C760 379 966 260 1240 316" fill="none" stroke="#e0ba82" stroke-width="20" stroke-linecap="round" opacity="0.55"/>
    <path d="M-80 454 C194 392 378 536 614 456 C814 388 1014 424 1280 382" fill="none" stroke="#7e5530" stroke-width="16" stroke-linecap="round" opacity="0.5"/>
    <path d="M-64 650 C230 600 418 716 654 648 C820 600 1018 694 1260 634" fill="none" stroke="#d9aa70" stroke-width="22" stroke-linecap="round" opacity="0.52"/>
    <path d="M-42 846 C158 784 404 914 610 826 C806 742 1010 826 1248 780" fill="none" stroke="#6d4326" stroke-width="14" stroke-linecap="round" opacity="0.46"/>
    <path d="M-80 1016 C180 934 382 1078 608 998 C836 918 1030 1036 1280 958" fill="none" stroke="#edc991" stroke-width="18" stroke-linecap="round" opacity="0.52"/>
  </g>
  <ellipse cx="700" cy="356" rx="92" ry="31" fill="none" stroke="#6f4628" stroke-width="9" opacity="0.35"/>
  <ellipse cx="426" cy="744" rx="128" ry="42" fill="none" stroke="#e6bd83" stroke-width="8" opacity="0.42"/>
  <rect x="24" y="24" width="1152" height="1152" fill="none" stroke="#7e5530" stroke-width="24"/>
</svg>
